<svg width="657" height="158" viewBox="0 0 657 158" fill="none" xmlns="http://www.w3.org/2000/svg">
<path d="M172.629 100.026V85.2656H173.764V100.026H172.629Z" fill="#545554"/>
<path d="M184.55 86.2749H179.189V85.2656H190.984V86.2749H185.623V100.026H184.487L184.55 86.2749Z" fill="#545554"/>
<path d="M215.332 89.2362C215.332 90.7501 214.386 91.9485 212.935 92.3901C214.764 92.8947 215.837 94.4086 215.837 96.1117C215.837 99.1394 212.998 99.9594 210.475 99.9594C208.331 99.9594 206.564 99.9594 204.42 99.9594V85.1992C206.564 85.1992 208.331 85.1992 210.475 85.1992C212.998 85.1992 215.332 86.4608 215.332 89.2362ZM205.555 91.9485H210.601C212.367 91.9485 214.26 91.3808 214.26 89.2993C214.26 87.1546 212.304 86.2085 210.475 86.2085H205.555V91.9485ZM205.555 98.8871H210.475C212.304 98.8871 214.701 98.4455 214.701 96.1117C214.701 93.8409 212.557 93.0209 210.601 93.0209C208.835 93.0209 207.321 93.0209 205.555 93.0209V98.8871Z" fill="#545554"/>
<path d="M235.769 92.6441C235.769 96.5549 233.246 100.277 228.326 100.277C223.406 100.277 220.883 96.4919 220.883 92.6441C220.883 88.6702 223.343 85.0117 228.326 85.0117C233.309 85.0117 235.769 88.6702 235.769 92.6441ZM222.018 92.6441C222.018 95.9872 224.163 99.2042 228.326 99.2042C232.552 99.2042 234.697 95.9872 234.697 92.6441C234.697 89.2379 232.552 86.084 228.326 86.084C224.1 86.084 221.955 89.1118 222.018 92.6441Z" fill="#545554"/>
<path d="M255.45 92.6441C255.45 96.5549 252.926 100.277 248.006 100.277C243.086 100.277 240.563 96.4919 240.563 92.6441C240.563 88.6702 243.023 85.0117 248.006 85.0117C252.99 85.0117 255.45 88.6702 255.45 92.6441ZM241.636 92.6441C241.636 95.9872 243.78 99.2042 247.943 99.2042C252.17 99.2042 254.314 95.9872 254.314 92.6441C254.314 89.2379 252.17 86.084 247.943 86.084C243.717 86.084 241.636 89.1118 241.636 92.6441Z" fill="#545554"/>
<path d="M264.154 86.2749H258.793V85.2656H270.588V86.2749H265.227V100.026H264.091L264.154 86.2749Z" fill="#545554"/>
<path d="M287.682 97.9427C286.232 99.3935 284.213 100.15 282.321 100.15C277.338 100.15 274.751 96.6811 274.751 92.6441C274.688 88.6702 277.275 85.0117 282.321 85.0117C284.276 85.0117 286.232 85.7687 287.682 87.2194L286.925 87.9133C285.664 86.6517 284.024 86.021 282.321 86.021C278.032 86.021 275.824 89.0487 275.824 92.5811C275.887 96.0503 278.032 99.015 282.321 99.015C283.961 99.015 285.664 98.3842 286.925 97.1227L287.682 97.9427Z" fill="#545554"/>
<path d="M304.246 99.7602L302.606 96.1017H293.775L292.198 99.7602H291L297.623 85H298.885L305.508 99.7602H304.246ZM302.228 95.0294L298.254 86.0092L294.28 95.0294H302.228Z" fill="#545554"/>
<path d="M322.691 86.9057L317.014 95.5473H316.635L310.958 86.9057V100.026H309.823V85.2656C310.39 85.2656 310.643 85.2656 311.147 85.2656L316.824 93.8442L322.438 85.2656H323.826V100.026H322.691V86.9057Z" fill="#545554"/>
<path d="M330.891 94.9165V100.026H329.755V85.2656C331.9 85.2656 334.108 85.2656 336.252 85.2656C342.686 85.2656 342.686 94.9165 336.252 94.9165H330.891ZM330.891 86.2749V93.8442H336.252C341.172 93.8442 341.172 86.2749 336.252 86.2749H330.891Z" fill="#545554"/>
<path d="M364.259 88.7952C364.259 86.4614 362.43 86.0829 360.474 86.0829C357.636 86.0829 356.311 87.4075 356.311 89.0475C356.311 91.3183 358.708 92.0122 360.537 92.0122C362.745 92.0122 364.637 92.0122 366.782 92.0122V92.8953H365.457V96.1122C365.457 97.6892 365.836 99.14 367.286 99.0769V99.96C366.088 100.149 365.142 99.3292 364.826 98.0677C363.754 99.8338 362.051 100.149 360.474 100.149C356.879 100.149 354.986 98.5723 354.986 96.0492C354.986 94.2199 356.5 92.9584 357.951 92.4537C356.437 92.0122 355.239 90.6876 355.239 89.0475C355.239 86.7767 357.131 85.1367 360.474 85.1367C362.871 85.1367 365.205 85.7675 365.205 88.7952H364.259ZM364.511 92.8953H360.474C357.573 92.8953 356.059 94.5353 356.059 96.0492C356.059 97.9415 357.446 99.14 360.411 99.14C362.114 99.14 364.511 98.5723 364.511 96.0492V92.8953Z" fill="#545554"/>
<path d="M385.39 86.2749H380.028V85.2656H391.824V86.2749H386.462V100.026H385.327L385.39 86.2749Z" fill="#545554"/>
<path d="M408.476 100.026L406.836 96.3673H398.005L396.428 100.026H395.23L401.853 85.2656H403.115L409.738 100.026H408.476ZM406.395 95.295L402.421 86.2749L398.447 95.295H406.395Z" fill="#545554"/>
<path d="M415.604 85.1992V98.8871H423.93V99.9594H414.469V85.1992H415.604Z" fill="#545554"/>
<path d="M429.923 92.0747H438.564V93.0839H429.923V98.8871H439.258V99.9594H428.787V85.1992H439.006V86.2715H429.923V92.0747Z" fill="#545554"/>
<path d="M445.44 85.1992L455.406 97.4363V85.1992H456.542V99.9594H456.037L446.071 87.7854V99.9594H444.935V85.1992H445.44Z" fill="#545554"/>
<path d="M466.634 86.2749H461.272V85.2656H473.068V86.2749H467.706V100.026H466.571L466.634 86.2749Z" fill="#545554"/>
<path d="M499.434 86.9057L493.757 95.5473H493.379L487.702 86.9057V100.026H486.567V85.2656C487.134 85.2656 487.387 85.2656 487.891 85.2656L493.568 93.8442L499.182 85.2656H500.57V100.026H499.434V86.9057Z" fill="#545554"/>
<path d="M518.232 100.026L516.592 96.3673H507.761L506.184 100.026H504.985L511.609 85.2656H512.87L519.493 100.026H518.232ZM516.15 95.295L512.176 86.2749L508.202 95.295H516.15Z" fill="#545554"/>
<path d="M524.539 85.1992L534.506 97.4363V85.1992H535.641V99.9594H535.2L525.233 87.7854V99.9594H524.098V85.1992H524.539Z" fill="#545554"/>
<path d="M553.366 100.026L551.726 96.3673H542.895L541.318 100.026H540.12L546.743 85.2656H548.004L554.628 100.026H553.366ZM551.284 95.295L547.311 86.2749L543.337 95.295H551.284Z" fill="#545554"/>
<path d="M570.145 87.9758C568.883 86.7142 567.054 86.0835 565.414 86.0835C561.062 86.0835 558.854 89.2374 558.917 92.6436C558.917 96.1128 561.125 99.1406 565.414 99.1406C566.991 99.1406 568.631 98.5729 569.892 97.4375V93.2743H564.72V92.2651H570.965V97.8159C569.451 99.3298 567.622 100.213 565.414 100.213C560.368 100.213 557.781 96.6805 557.781 92.7066C557.781 88.102 560.935 85.0742 565.414 85.0742C567.369 85.0742 569.325 85.8312 570.839 87.2819L570.145 87.9758Z" fill="#545554"/>
<path d="M577.903 92.0747H586.545V93.0839H577.903V98.8871H587.239V99.9594H576.768V85.1992H586.986V86.2715H577.903V92.0747Z" fill="#545554"/>
<path d="M605.342 86.9057L599.665 95.5473H599.287L593.61 86.9057V100.026H592.474V85.2656C593.042 85.2656 593.294 85.2656 593.799 85.2656L599.476 93.8442L605.09 85.2656H606.478V100.026H605.342V86.9057Z" fill="#545554"/>
<path d="M613.542 92.0747H622.184V93.0839H613.542V98.8871H622.878V99.9594H612.407V85.1992H622.625V86.2715H613.542V92.0747Z" fill="#545554"/>
<path d="M628.996 85.1992L638.963 97.4363V85.1992H640.098V99.9594H639.656L629.69 87.7854V99.9594H628.555V85.1992H628.996Z" fill="#545554"/>
<path d="M650.253 86.2749H644.892V85.2656H656.687V86.2749H651.326V100.026H650.19L650.253 86.2749Z" fill="#545554"/>
<path d="M462.471 124.12L461.336 121.534H455.028L453.892 124.12H453.009L457.74 113.586H458.623L463.354 124.12H462.471ZM460.957 120.777L458.119 114.343L455.28 120.777H460.957Z" fill="#231F20"/>
<path d="M477.862 114.784L473.825 120.966H473.573L469.536 114.784V124.12H468.653V113.586C469.031 113.586 469.22 113.586 469.599 113.586L473.636 119.704L477.61 113.586H478.619V124.12H477.799L477.862 114.784Z" fill="#231F20"/>
<path d="M480.385 120.399C480.385 118.191 482.088 116.551 484.17 116.551C486.251 116.551 488.144 117.812 487.828 120.714H481.142C481.268 122.48 482.656 123.489 484.17 123.489C485.116 123.489 486.314 123.111 486.819 122.354L487.324 122.795C486.567 123.742 485.305 124.246 484.107 124.246C482.088 124.246 480.385 122.795 480.385 120.399ZM487.197 120.083C487.197 118.254 485.999 117.245 484.17 117.245C482.656 117.245 481.331 118.254 481.142 120.083H487.197Z" fill="#231F20"/>
<path d="M500.633 124.12V119.642C500.633 118.191 499.687 117.182 498.236 117.182C496.785 117.182 495.839 118.254 495.839 119.642V124.057H495.145V119.642C495.145 118.191 494.199 117.182 492.748 117.182C491.297 117.182 490.351 118.191 490.351 119.642V124.057H489.594V116.677H490.288V117.938C490.793 116.929 491.739 116.551 492.685 116.551C493.821 116.551 495.019 117.055 495.461 118.38C495.902 117.182 497.038 116.551 498.236 116.551C500.065 116.551 501.327 117.812 501.327 119.705V124.183L500.633 124.12Z" fill="#231F20"/>
<path d="M504.165 113.586V118.317C504.796 117.118 505.995 116.551 507.256 116.551C509.338 116.551 510.978 117.938 510.978 120.398C510.978 122.858 509.338 124.246 507.256 124.246C505.995 124.246 504.796 123.615 504.165 122.48V124.12H503.408V113.586H504.165ZM504.165 120.398C504.165 122.228 505.427 123.552 507.193 123.552C508.896 123.552 510.221 122.48 510.221 120.461C510.221 118.38 508.833 117.308 507.193 117.308C505.49 117.308 504.165 118.569 504.165 120.398Z" fill="#231F20"/>
<path d="M512.365 120.399C512.365 118.191 514.069 116.551 516.15 116.551C518.232 116.551 520.124 117.812 519.809 120.714H513.122C513.249 122.48 514.636 123.489 516.15 123.489C517.096 123.489 518.295 123.111 518.799 122.354L519.304 122.795C518.547 123.742 517.286 124.246 516.087 124.246C514.069 124.246 512.365 122.795 512.365 120.399ZM519.178 120.083C519.178 118.254 517.979 117.245 516.15 117.245C514.636 117.245 513.312 118.254 513.122 120.083H519.178Z" fill="#231F20"/>
<path d="M522.458 116.68V118.005C522.899 116.996 523.972 116.617 524.918 116.617C525.486 116.617 525.99 116.743 526.495 117.059L526.179 117.626C525.801 117.374 525.359 117.248 524.918 117.248C523.53 117.248 522.458 118.383 522.458 119.708V124.06H521.701V116.68H522.458Z" fill="#231F20"/>
<path d="M542.075 118.886C542.075 121.662 540.309 124.311 536.777 124.311C533.244 124.311 531.478 121.662 531.478 118.823C531.478 115.985 533.244 113.398 536.777 113.398C540.309 113.462 542.138 116.048 542.075 118.886ZM532.235 118.886C532.235 121.283 533.749 123.554 536.777 123.554C539.804 123.554 541.318 121.22 541.318 118.886C541.318 116.426 539.804 114.218 536.777 114.218C533.749 114.218 532.235 116.363 532.235 118.886Z" fill="#231F20"/>
<path d="M544.661 124.121V117.371H543.147V116.74H544.661V116.047C544.661 114.596 545.229 113.523 546.869 113.523C547.437 113.523 547.941 113.713 548.32 114.028L547.941 114.596C547.563 114.343 547.248 114.217 546.806 114.217C545.86 114.217 545.355 114.785 545.355 116.11V116.803H547.815V117.434H545.355V124.184H544.661V124.121Z" fill="#231F20"/>
<path d="M583.328 106.52V133.075H583.896V106.52H583.328Z" fill="black"/>
<path d="M594.619 123.866C594.682 123.361 594.745 122.92 594.808 122.478C594.997 120.964 595.25 119.514 595.376 118C595.502 116.549 597.52 114.783 599.35 115.477C600.044 115.729 600.801 116.801 600.737 117.621C600.674 118.252 600.611 118.883 600.485 119.577C600.233 121.406 599.917 123.235 599.665 125.127C599.665 125.317 599.665 125.38 599.854 125.38C600.611 125.317 601.368 125.317 602.125 125.254C603.008 125.191 603.702 124.749 604.27 124.118C604.522 123.866 604.585 123.551 604.396 123.235C604.207 122.92 604.27 122.604 604.522 122.289C605.027 121.658 605.027 121.027 604.648 120.334C604.459 119.955 604.459 119.955 604.774 119.703C605.09 119.45 605.279 119.198 605.279 118.82C605.279 118.504 605.279 118.189 605.342 117.874C605.342 117.558 605.216 117.243 605.027 116.99C604.901 116.801 604.648 116.612 604.648 116.423C604.648 116.234 604.901 116.044 605.027 115.855C605.279 115.477 605.468 115.098 605.342 114.657C605.153 114.215 604.964 113.71 604.711 113.269C604.648 113.143 604.459 112.953 604.27 112.953C603.765 112.89 603.197 112.89 602.693 112.953C601.936 113.017 601.242 113.206 600.485 113.332C599.854 113.458 599.539 113.017 599.665 112.449C599.728 112.197 599.791 112.007 599.917 111.755C600.233 111.061 600.548 110.367 600.801 109.61C601.242 108.033 600.99 106.583 599.854 105.384C599.476 105.006 599.034 104.943 598.593 105.006C598.404 105.006 598.151 105.069 598.025 105.258C597.584 105.7 597.268 106.141 597.079 106.772C596.89 107.403 596.7 107.97 596.511 108.601C596.196 109.484 595.691 110.241 594.871 110.746C594.493 110.998 594.114 111.313 593.862 111.692C593.294 112.512 592.79 113.458 592.222 114.278C592.159 114.341 592.159 114.467 592.159 114.594C592.033 116.234 591.97 117.874 592.159 119.514C592.348 120.838 592.79 121.974 593.484 123.109C593.673 123.361 594.177 123.614 594.619 123.866Z" fill="white"/>
<path d="M594.619 123.868C594.114 123.615 593.673 123.363 593.357 122.922C592.663 121.786 592.222 120.588 592.033 119.326C591.843 117.686 591.906 116.046 592.033 114.406C592.033 114.28 592.033 114.217 592.096 114.091C592.6 113.208 593.168 112.324 593.736 111.504C593.988 111.126 594.367 110.811 594.745 110.558C595.565 109.991 596.07 109.297 596.385 108.414C596.574 107.846 596.764 107.215 596.953 106.584C597.142 105.954 597.457 105.512 597.899 105.071C598.025 104.944 598.277 104.881 598.467 104.818C598.971 104.755 599.413 104.818 599.728 105.197C600.927 106.395 601.116 107.846 600.674 109.423C600.485 110.18 600.107 110.811 599.791 111.568C599.665 111.82 599.602 112.009 599.539 112.261C599.413 112.829 599.728 113.271 600.359 113.144C601.116 113.018 601.81 112.892 602.567 112.766C603.071 112.703 603.576 112.766 604.144 112.766C604.27 112.766 604.522 112.955 604.585 113.081C604.837 113.523 605.027 113.964 605.216 114.469C605.405 114.911 605.153 115.289 604.901 115.668C604.774 115.857 604.522 116.046 604.522 116.235C604.522 116.424 604.774 116.614 604.901 116.803C605.09 117.055 605.216 117.371 605.216 117.686C605.216 118.001 605.153 118.317 605.153 118.632C605.153 119.011 604.964 119.326 604.648 119.515C604.333 119.768 604.333 119.831 604.522 120.146C604.901 120.84 604.901 121.471 604.396 122.102C604.144 122.354 604.081 122.669 604.27 123.048C604.459 123.363 604.333 123.678 604.144 123.931C603.576 124.562 602.882 125.003 601.999 125.066C601.242 125.129 600.485 125.192 599.728 125.192C599.539 125.192 599.476 125.129 599.539 124.94C599.854 123.111 600.107 121.281 600.359 119.389C600.485 118.758 600.548 118.128 600.611 117.434C600.674 116.614 599.917 115.541 599.224 115.289C597.394 114.595 595.376 116.361 595.25 117.812C595.123 119.326 594.871 120.84 594.682 122.291C594.745 122.922 594.682 123.426 594.619 123.868Z" fill="#EC6733"/>
<path d="M589.573 119.706C589.573 119.58 589.636 119.454 589.636 119.391C589.636 118.507 589.636 117.624 589.699 116.741C589.699 116.3 589.825 115.795 589.888 115.354C589.888 115.164 590.014 115.101 590.203 115.101C590.96 115.354 591.465 115.038 591.907 114.47C591.97 114.407 591.97 114.407 592.033 114.281C592.033 114.66 591.97 114.975 591.97 115.227C591.907 116.741 591.78 118.318 592.096 119.832C592.285 120.841 592.663 121.851 593.231 122.797C593.547 123.301 593.988 123.617 594.493 123.869C594.682 123.932 594.745 124.058 594.682 124.248C594.619 124.563 594.619 124.878 594.556 125.194C594.556 125.383 594.43 125.446 594.303 125.383C593.547 125.257 592.79 125.194 592.159 124.815C591.843 124.626 591.465 124.626 591.086 124.689C590.708 124.752 590.393 124.689 590.014 124.5C589.825 124.374 589.699 124.184 589.699 123.932C589.699 123.364 589.699 122.797 589.636 122.166C589.636 122.04 589.636 121.914 589.573 121.788C589.573 121.094 589.573 120.4 589.573 119.706Z" fill="#960505"/>
<path d="M619.219 118.317C619.219 118.696 619.156 119.011 618.967 119.2C618.778 119.39 618.525 119.453 618.21 119.453H611.208C611.208 119.957 611.271 120.399 611.398 120.777C611.524 121.156 611.713 121.534 611.965 121.786C612.218 122.039 612.533 122.291 612.975 122.417C613.353 122.543 613.858 122.67 614.425 122.67C614.993 122.67 615.498 122.606 615.939 122.543C616.381 122.48 616.759 122.354 617.075 122.291C617.39 122.165 617.642 122.102 617.832 122.039C618.021 121.976 618.21 121.913 618.336 121.913C618.399 121.913 618.462 121.913 618.525 121.976C618.588 122.039 618.652 122.039 618.652 122.165C618.652 122.228 618.715 122.354 618.715 122.48C618.715 122.606 618.715 122.796 618.715 123.048C618.715 123.237 618.715 123.426 618.715 123.553C618.715 123.679 618.715 123.805 618.652 123.931C618.652 123.994 618.589 124.12 618.589 124.183C618.589 124.246 618.525 124.31 618.462 124.373C618.399 124.436 618.273 124.499 618.021 124.625C617.768 124.751 617.453 124.814 617.075 124.94C616.696 125.067 616.255 125.13 615.75 125.193C615.245 125.256 614.678 125.319 614.173 125.319C613.164 125.319 612.218 125.193 611.461 124.94C610.704 124.688 610.073 124.31 609.505 123.742C609.001 123.237 608.622 122.543 608.37 121.723C608.118 120.903 607.991 119.957 607.991 118.885C607.991 117.876 608.118 116.929 608.37 116.109C608.622 115.289 609.001 114.596 609.505 114.028C610.01 113.46 610.641 113.019 611.398 112.703C612.155 112.388 612.975 112.262 613.858 112.262C614.804 112.262 615.624 112.388 616.318 112.703C617.012 113.019 617.579 113.397 618.021 113.902C618.462 114.406 618.778 115.037 618.967 115.731C619.156 116.425 619.282 117.182 619.282 118.002L619.219 118.317ZM616.065 117.371C616.065 116.488 615.939 115.731 615.498 115.226C615.119 114.722 614.488 114.469 613.668 114.469C613.227 114.469 612.912 114.533 612.596 114.722C612.281 114.911 612.028 115.1 611.839 115.353C611.65 115.605 611.461 115.92 611.398 116.299C611.271 116.677 611.208 117.056 611.208 117.434H616.065V117.371Z" fill="#CCAC5D"/>
<path d="M633.601 118.507C633.601 119.516 633.475 120.462 633.286 121.282C633.033 122.102 632.718 122.796 632.34 123.364C631.961 123.932 631.393 124.373 630.763 124.689C630.132 125.004 629.438 125.13 628.681 125.13C628.303 125.13 627.924 125.067 627.609 125.004C627.293 124.941 626.978 124.815 626.663 124.626C626.347 124.436 626.032 124.247 625.779 123.995C625.464 123.743 625.149 123.427 624.833 123.112V124.373C624.833 124.436 624.833 124.563 624.77 124.626C624.707 124.689 624.644 124.752 624.518 124.815C624.392 124.878 624.266 124.878 624.076 124.878C623.887 124.878 623.698 124.878 623.446 124.878C623.193 124.878 622.941 124.878 622.752 124.878C622.562 124.878 622.436 124.815 622.31 124.815C622.184 124.752 622.121 124.752 622.058 124.626C621.995 124.563 621.995 124.499 621.995 124.373V107.279C621.995 107.216 621.995 107.09 622.058 107.027C622.121 106.964 622.184 106.901 622.31 106.838C622.436 106.775 622.626 106.775 622.815 106.712C623.004 106.712 623.319 106.648 623.635 106.648C623.95 106.648 624.202 106.648 624.455 106.712C624.707 106.775 624.833 106.775 624.959 106.838C625.086 106.901 625.149 106.964 625.212 107.027C625.275 107.09 625.275 107.153 625.275 107.279V113.65C625.59 113.335 625.843 113.082 626.158 112.893C626.473 112.704 626.726 112.515 627.041 112.389C627.356 112.262 627.672 112.136 627.924 112.073C628.239 112.01 628.555 112.01 628.933 112.01C629.816 112.01 630.51 112.199 631.141 112.515C631.772 112.83 632.213 113.335 632.592 113.902C632.97 114.47 633.223 115.164 633.412 115.921C633.475 116.804 633.601 117.624 633.601 118.507ZM630.195 118.696C630.195 118.192 630.132 117.75 630.069 117.245C630.006 116.804 629.879 116.362 629.69 116.047C629.501 115.732 629.249 115.416 628.996 115.164C628.681 114.975 628.366 114.849 627.924 114.849C627.735 114.849 627.483 114.912 627.293 114.912C627.104 114.975 626.852 115.101 626.663 115.227C626.473 115.353 626.221 115.542 625.969 115.795C625.716 116.047 625.464 116.299 625.212 116.678V120.526C625.653 121.093 626.095 121.535 626.536 121.85C626.978 122.166 627.419 122.292 627.861 122.292C628.303 122.292 628.618 122.166 628.933 121.976C629.249 121.787 629.438 121.472 629.69 121.156C629.943 120.841 630.006 120.399 630.132 119.958C630.132 119.579 630.195 119.138 630.195 118.696Z" fill="#CCAC5D"/>
<path d="M646.027 124.501C646.027 124.627 645.964 124.69 645.901 124.753C645.838 124.816 645.712 124.879 645.46 124.879C645.207 124.879 645.018 124.942 644.64 124.942C644.261 124.942 643.946 124.942 643.82 124.879C643.693 124.816 643.504 124.816 643.441 124.753C643.378 124.69 643.315 124.564 643.315 124.501V123.554C642.81 124.059 642.306 124.437 641.675 124.753C641.044 125.005 640.413 125.194 639.656 125.194C639.026 125.194 638.458 125.131 637.953 124.942C637.449 124.816 637.007 124.564 636.629 124.248C636.25 123.933 635.935 123.554 635.746 123.05C635.556 122.545 635.43 122.041 635.43 121.41C635.43 120.716 635.556 120.148 635.809 119.644C636.061 119.139 636.44 118.76 637.007 118.445C637.575 118.13 638.206 117.877 638.963 117.751C639.72 117.625 640.666 117.499 641.675 117.499H642.81V116.805C642.81 116.427 642.747 116.111 642.684 115.859C642.621 115.607 642.495 115.354 642.306 115.165C642.117 114.976 641.927 114.85 641.612 114.787C641.296 114.723 640.981 114.66 640.54 114.66C639.972 114.66 639.53 114.723 639.089 114.85C638.647 114.976 638.269 115.102 637.953 115.228C637.638 115.354 637.323 115.48 637.133 115.607C636.944 115.733 636.755 115.796 636.629 115.796C636.503 115.796 636.44 115.733 636.376 115.733C636.313 115.67 636.25 115.607 636.187 115.48C636.124 115.354 636.124 115.228 636.061 115.039C636.061 114.85 635.998 114.66 635.998 114.471C635.998 114.219 635.998 113.967 636.061 113.84C636.124 113.714 636.187 113.525 636.313 113.399C636.44 113.273 636.629 113.147 636.944 112.957C637.26 112.768 637.575 112.642 638.016 112.516C638.395 112.39 638.836 112.263 639.341 112.2C639.846 112.137 640.35 112.074 640.855 112.074C641.738 112.074 642.558 112.137 643.189 112.327C643.82 112.516 644.387 112.768 644.766 113.147C645.207 113.525 645.46 113.967 645.649 114.534C645.838 115.102 645.901 115.796 645.901 116.616L646.027 124.501ZM642.81 119.517H641.549C641.044 119.517 640.54 119.58 640.224 119.644C639.846 119.707 639.53 119.833 639.341 120.022C639.152 120.211 638.963 120.4 638.837 120.59C638.71 120.842 638.647 121.094 638.647 121.347C638.647 121.851 638.773 122.23 639.089 122.482C639.404 122.734 639.846 122.924 640.35 122.924C640.792 122.924 641.233 122.797 641.612 122.545C641.99 122.293 642.369 121.977 642.81 121.536V119.517Z" fill="#CCAC5D"/>
<path d="M655.931 123.3C655.931 123.678 655.931 123.993 655.868 124.183C655.804 124.372 655.741 124.561 655.678 124.624C655.615 124.687 655.489 124.75 655.3 124.877C655.111 125.003 654.984 125.003 654.795 125.066C654.606 125.129 654.354 125.129 654.101 125.192C653.849 125.255 653.597 125.255 653.407 125.255C652.777 125.255 652.209 125.192 651.704 125.003C651.2 124.813 650.821 124.561 650.506 124.246C650.191 123.93 649.938 123.489 649.812 122.921C649.686 122.416 649.623 121.786 649.623 121.092V115.163H648.235C648.046 115.163 647.92 115.036 647.857 114.847C647.794 114.658 647.73 114.279 647.73 113.838C647.73 113.586 647.73 113.396 647.794 113.207C647.794 113.018 647.857 112.892 647.92 112.829C647.983 112.702 648.046 112.639 648.109 112.639C648.172 112.576 648.235 112.576 648.361 112.576H649.749V109.99C649.749 109.927 649.749 109.801 649.812 109.738C649.875 109.675 649.938 109.612 650.064 109.549C650.19 109.486 650.38 109.486 650.569 109.422C650.758 109.422 651.074 109.359 651.326 109.359C651.641 109.359 651.894 109.359 652.146 109.422C652.398 109.486 652.524 109.486 652.65 109.549C652.777 109.612 652.84 109.675 652.903 109.738C652.966 109.801 652.966 109.864 652.966 109.99V112.576H655.489C655.552 112.576 655.678 112.576 655.741 112.639C655.804 112.703 655.868 112.766 655.931 112.829C655.994 112.955 655.994 113.081 656.057 113.207C656.057 113.396 656.12 113.586 656.12 113.838C656.12 114.343 656.057 114.658 655.994 114.847C655.931 115.036 655.804 115.163 655.615 115.163H653.092V120.587C653.092 121.218 653.218 121.723 653.407 121.975C653.597 122.29 653.975 122.48 654.48 122.48C654.669 122.48 654.795 122.48 654.921 122.416C655.048 122.353 655.174 122.353 655.3 122.29C655.426 122.227 655.489 122.227 655.552 122.164C655.615 122.101 655.678 122.101 655.741 122.101C655.804 122.101 655.868 122.101 655.868 122.164C655.868 122.227 655.931 122.227 655.994 122.353C655.994 122.416 656.057 122.543 656.057 122.732C655.867 122.858 655.931 123.047 655.931 123.3Z" fill="#CCAC5D"/>
<path d="M589.51 133.645V128.914H590.456V130.806H592.348V128.914H593.294V133.645H592.348V131.563H590.456V133.645H589.51Z" fill="black"/>
<path d="M594.997 131.249L594.177 131.123C594.303 130.807 594.43 130.555 594.682 130.366C594.934 130.176 595.25 130.113 595.691 130.113C596.07 130.113 596.385 130.176 596.574 130.239C596.763 130.303 596.89 130.492 597.016 130.618C597.079 130.744 597.142 131.059 597.142 131.438V132.51C597.142 132.826 597.142 133.015 597.205 133.204C597.268 133.393 597.268 133.519 597.394 133.646H596.511C596.511 133.583 596.448 133.519 596.448 133.393C596.448 133.33 596.448 133.33 596.448 133.267C596.322 133.393 596.133 133.519 595.943 133.583C595.754 133.646 595.565 133.709 595.376 133.709C594.997 133.709 594.745 133.646 594.556 133.393C594.366 133.204 594.24 132.952 594.24 132.699C594.24 132.51 594.303 132.321 594.366 132.195C594.493 132.069 594.556 131.943 594.745 131.816C594.934 131.753 595.186 131.69 595.502 131.627C595.943 131.564 596.196 131.501 596.385 131.375V131.312C596.385 131.123 596.322 130.996 596.259 130.933C596.196 130.87 596.007 130.807 595.754 130.807C595.565 130.807 595.439 130.87 595.376 130.87C595.123 130.996 594.997 131.059 594.997 131.249ZM596.196 132.006C596.07 132.069 595.88 132.069 595.628 132.132C595.376 132.195 595.186 132.258 595.123 132.258C594.997 132.321 594.934 132.447 594.934 132.573C594.934 132.699 594.997 132.826 595.06 132.889C595.187 132.952 595.25 133.015 595.439 133.015C595.628 133.015 595.754 132.952 595.88 132.826C596.007 132.763 596.07 132.636 596.07 132.51C596.07 132.447 596.133 132.258 596.133 132.069L596.196 132.006Z" fill="black"/>
<path d="M598.845 133.645H597.962V130.239H598.782V130.743C598.908 130.491 599.034 130.365 599.16 130.302C599.287 130.239 599.413 130.176 599.539 130.176C599.728 130.176 599.917 130.239 600.17 130.365L599.854 131.185C599.728 131.059 599.539 131.059 599.413 131.059C599.287 131.059 599.16 131.122 599.097 131.185C599.034 131.248 598.971 131.374 598.908 131.564C598.845 131.753 598.845 132.131 598.845 132.699V133.645Z" fill="black"/>
<path d="M601.242 131.249L600.422 131.123C600.548 130.807 600.674 130.555 600.927 130.366C601.179 130.176 601.494 130.113 601.936 130.113C602.314 130.113 602.63 130.176 602.819 130.239C603.008 130.303 603.134 130.492 603.26 130.618C603.324 130.744 603.387 131.059 603.387 131.438V132.51C603.387 132.826 603.387 133.015 603.45 133.204C603.513 133.393 603.513 133.519 603.639 133.646H602.756C602.756 133.583 602.693 133.519 602.693 133.393C602.693 133.33 602.693 133.33 602.693 133.267C602.567 133.393 602.377 133.519 602.188 133.583C601.999 133.646 601.81 133.709 601.62 133.709C601.242 133.709 600.99 133.646 600.8 133.393C600.611 133.204 600.485 132.952 600.485 132.699C600.485 132.51 600.548 132.321 600.611 132.195C600.737 132.069 600.8 131.943 600.99 131.816C601.179 131.753 601.431 131.69 601.747 131.627C602.188 131.564 602.44 131.501 602.63 131.375V131.312C602.63 131.123 602.567 130.996 602.504 130.933C602.44 130.87 602.251 130.807 601.999 130.807C601.81 130.807 601.684 130.87 601.62 130.87C601.368 130.996 601.305 131.059 601.242 131.249ZM602.44 132.006C602.314 132.069 602.125 132.069 601.873 132.132C601.62 132.195 601.431 132.258 601.368 132.258C601.242 132.321 601.179 132.447 601.179 132.573C601.179 132.699 601.242 132.826 601.305 132.889C601.431 132.952 601.494 133.015 601.684 133.015C601.873 133.015 601.999 132.952 602.125 132.826C602.251 132.763 602.314 132.636 602.314 132.51C602.314 132.447 602.377 132.258 602.377 132.069L602.44 132.006Z" fill="black"/>
<path d="M604.207 130.177H605.027V130.682C605.153 130.492 605.279 130.366 605.468 130.24C605.657 130.114 605.847 130.051 606.099 130.051C606.477 130.051 606.856 130.177 607.108 130.492C607.361 130.808 607.55 131.249 607.55 131.817C607.55 132.385 607.424 132.826 607.108 133.142C606.856 133.457 606.477 133.646 606.099 133.646C605.91 133.646 605.721 133.583 605.594 133.52C605.468 133.457 605.279 133.331 605.09 133.142V134.845H604.207V130.177ZM605.09 131.88C605.09 132.259 605.153 132.574 605.342 132.763C605.531 132.952 605.657 133.015 605.91 133.015C606.099 133.015 606.288 132.952 606.414 132.763C606.541 132.574 606.604 132.322 606.604 131.943C606.604 131.565 606.541 131.312 606.414 131.123C606.288 130.934 606.099 130.871 605.91 130.871C605.721 130.871 605.531 130.934 605.342 131.123C605.216 131.249 605.09 131.502 605.09 131.88Z" fill="black"/>
<path d="M608.937 131.249L608.117 131.123C608.244 130.807 608.37 130.555 608.622 130.366C608.874 130.176 609.19 130.113 609.631 130.113C610.01 130.113 610.325 130.176 610.514 130.239C610.704 130.303 610.83 130.492 610.956 130.618C611.019 130.744 611.082 131.059 611.082 131.438V132.51C611.082 132.826 611.082 133.015 611.145 133.204C611.208 133.393 611.208 133.519 611.334 133.646H610.451C610.451 133.583 610.388 133.519 610.388 133.393C610.388 133.33 610.388 133.33 610.388 133.267C610.262 133.393 610.073 133.519 609.884 133.583C609.694 133.646 609.505 133.709 609.316 133.709C608.937 133.709 608.685 133.646 608.496 133.393C608.307 133.204 608.181 132.952 608.181 132.699C608.181 132.51 608.244 132.321 608.307 132.195C608.433 132.069 608.496 131.943 608.685 131.816C608.874 131.753 609.127 131.69 609.442 131.627C609.884 131.564 610.136 131.501 610.325 131.375V131.312C610.325 131.123 610.262 130.996 610.199 130.933C610.136 130.87 609.947 130.807 609.694 130.807C609.505 130.807 609.379 130.87 609.316 130.87C609.064 130.996 609.001 131.059 608.937 131.249ZM610.199 132.006C610.073 132.069 609.884 132.069 609.631 132.132C609.379 132.195 609.19 132.258 609.127 132.258C609.001 132.321 608.937 132.447 608.937 132.573C608.937 132.699 609.001 132.826 609.064 132.889C609.19 132.952 609.253 133.015 609.442 133.015C609.631 133.015 609.757 132.952 609.884 132.826C610.01 132.763 610.073 132.636 610.073 132.51C610.073 132.447 610.136 132.258 610.136 132.069L610.199 132.006Z" fill="black"/>
<path d="M615.119 133.645H614.236V131.879C614.236 131.5 614.236 131.248 614.173 131.185C614.11 131.122 614.047 130.996 613.984 130.933C613.921 130.87 613.795 130.87 613.668 130.87C613.542 130.87 613.353 130.933 613.227 130.996C613.101 131.059 613.038 131.185 612.974 131.311C612.911 131.437 612.911 131.69 612.911 132.068V133.645H612.028V130.239H612.848V130.743C613.164 130.365 613.542 130.176 613.984 130.176C614.173 130.176 614.362 130.239 614.551 130.302C614.741 130.365 614.867 130.491 614.93 130.554C614.993 130.68 615.056 130.807 615.119 130.933C615.119 131.059 615.182 131.311 615.182 131.564L615.119 133.645Z" fill="black"/>
<path d="M617.832 128.914H619.724C620.102 128.914 620.355 128.914 620.544 128.977C620.733 129.04 620.859 129.04 621.048 129.166C621.175 129.293 621.301 129.419 621.427 129.545C621.553 129.671 621.553 129.923 621.553 130.113C621.553 130.365 621.49 130.554 621.364 130.743C621.238 130.933 621.049 131.059 620.859 131.185C621.175 131.248 621.364 131.437 621.553 131.626C621.679 131.816 621.805 132.068 621.805 132.32C621.805 132.51 621.742 132.762 621.679 132.951C621.616 133.14 621.427 133.33 621.238 133.456C621.049 133.582 620.859 133.645 620.607 133.708C620.481 133.708 620.039 133.708 619.472 133.771H617.832V128.914ZM618.841 129.671V130.743H619.472C619.85 130.743 620.102 130.743 620.165 130.743C620.355 130.743 620.481 130.68 620.544 130.554C620.67 130.491 620.67 130.365 620.67 130.176C620.67 130.049 620.607 129.923 620.544 129.797C620.481 129.734 620.355 129.671 620.165 129.608C620.039 129.608 619.787 129.608 619.345 129.608L618.841 129.671ZM618.841 131.563V132.825H619.724C620.039 132.825 620.292 132.825 620.355 132.762C620.481 132.762 620.607 132.699 620.67 132.573C620.733 132.446 620.796 132.32 620.796 132.194C620.796 132.068 620.796 131.942 620.67 131.816C620.607 131.689 620.481 131.626 620.355 131.626C620.228 131.563 619.913 131.563 619.535 131.563H618.841Z" fill="#EC6733"/>
<path d="M623.319 131.249L622.499 131.123C622.625 130.807 622.752 130.555 623.004 130.366C623.256 130.176 623.572 130.113 624.013 130.113C624.392 130.113 624.707 130.176 624.896 130.239C625.085 130.303 625.212 130.492 625.338 130.618C625.401 130.744 625.464 131.059 625.464 131.438V132.51C625.464 132.826 625.464 133.015 625.527 133.204C625.59 133.393 625.59 133.519 625.716 133.646H624.833C624.833 133.583 624.77 133.519 624.77 133.393C624.77 133.33 624.77 133.33 624.77 133.267C624.644 133.393 624.455 133.519 624.265 133.583C624.076 133.646 623.887 133.709 623.698 133.709C623.319 133.709 623.067 133.646 622.878 133.393C622.688 133.204 622.562 132.952 622.562 132.699C622.562 132.51 622.625 132.321 622.688 132.195C622.815 132.069 622.878 131.943 623.067 131.816C623.256 131.753 623.508 131.69 623.824 131.627C624.265 131.564 624.518 131.501 624.707 131.375V131.312C624.707 131.123 624.644 130.996 624.581 130.933C624.518 130.87 624.329 130.807 624.076 130.807C623.887 130.807 623.761 130.87 623.698 130.87C623.445 130.996 623.382 131.059 623.319 131.249ZM624.518 132.006C624.392 132.069 624.202 132.069 623.95 132.132C623.698 132.195 623.509 132.258 623.445 132.258C623.319 132.321 623.256 132.447 623.256 132.573C623.256 132.699 623.319 132.826 623.382 132.889C623.508 132.952 623.572 133.015 623.761 133.015C623.95 133.015 624.076 132.952 624.202 132.826C624.328 132.763 624.392 132.636 624.392 132.51C624.392 132.447 624.455 132.258 624.455 132.069L624.518 132.006Z" fill="#EC6733"/>
<path d="M629.438 133.645H628.555V131.879C628.555 131.5 628.555 131.248 628.492 131.185C628.429 131.122 628.366 130.996 628.302 130.933C628.239 130.87 628.113 130.87 627.987 130.87C627.861 130.87 627.672 130.933 627.546 130.996C627.419 131.059 627.356 131.185 627.293 131.311C627.23 131.437 627.23 131.69 627.23 132.068V133.645H626.347V130.239H627.167V130.743C627.482 130.365 627.861 130.176 628.302 130.176C628.492 130.176 628.681 130.239 628.87 130.302C629.059 130.365 629.186 130.491 629.249 130.554C629.312 130.68 629.375 130.807 629.438 130.933C629.438 131.059 629.501 131.311 629.501 131.564L629.438 133.645Z" fill="#EC6733"/>
<path d="M630.258 133.834L631.33 133.96C631.33 134.087 631.393 134.15 631.456 134.213C631.519 134.276 631.646 134.276 631.898 134.276C632.15 134.276 632.339 134.213 632.402 134.15C632.466 134.087 632.529 134.024 632.592 133.897C632.592 133.834 632.655 133.708 632.655 133.456V133.077C632.402 133.456 632.024 133.645 631.646 133.645C631.204 133.645 630.826 133.456 630.573 133.077C630.384 132.762 630.258 132.384 630.258 131.942C630.258 131.374 630.384 130.933 630.699 130.617C631.015 130.302 631.33 130.176 631.709 130.176C632.15 130.176 632.466 130.365 632.781 130.743V130.239H633.601V133.33C633.601 133.708 633.601 134.024 633.475 134.213C633.349 134.402 633.349 134.591 633.159 134.717C633.033 134.844 632.844 134.907 632.655 134.97C632.466 135.033 632.213 135.033 631.898 135.033C631.33 135.033 630.889 134.907 630.636 134.717C630.384 134.528 630.258 134.276 630.258 133.96C630.258 133.96 630.258 133.897 630.258 133.834ZM631.078 131.816C631.078 132.194 631.141 132.447 631.267 132.636C631.393 132.825 631.582 132.888 631.772 132.888C631.961 132.888 632.213 132.825 632.339 132.636C632.466 132.447 632.592 132.194 632.592 131.879C632.592 131.5 632.529 131.248 632.402 131.059C632.276 130.87 632.087 130.807 631.835 130.807C631.582 130.807 631.456 130.87 631.33 131.059C631.141 131.248 631.078 131.5 631.078 131.816Z" fill="#EC6733"/>
<path d="M634.106 132.637L634.989 132.511C635.052 132.7 635.115 132.826 635.241 132.889C635.367 132.952 635.493 133.015 635.746 133.015C635.998 133.015 636.187 132.952 636.25 132.889C636.313 132.826 636.376 132.763 636.376 132.637C636.376 132.574 636.376 132.511 636.313 132.448C636.25 132.385 636.187 132.385 635.998 132.322C635.241 132.132 634.799 132.006 634.61 131.88C634.358 131.691 634.169 131.438 634.169 131.123C634.169 130.808 634.295 130.555 634.547 130.366C634.799 130.177 635.115 130.051 635.619 130.051C636.061 130.051 636.439 130.114 636.692 130.303C636.944 130.492 637.07 130.682 637.196 130.997L636.313 131.123C636.25 130.997 636.187 130.871 636.124 130.808C635.998 130.745 635.872 130.682 635.683 130.682C635.43 130.682 635.241 130.745 635.178 130.808C635.115 130.871 635.052 130.934 635.052 130.997C635.052 131.06 635.115 131.123 635.115 131.186C635.178 131.249 635.493 131.312 635.935 131.438C636.376 131.565 636.755 131.691 636.944 131.817C637.133 132.006 637.196 132.195 637.196 132.511C637.196 132.826 637.07 133.079 636.818 133.331C636.566 133.583 636.187 133.646 635.683 133.646C635.241 133.646 634.862 133.583 634.547 133.394C634.358 133.205 634.169 132.952 634.106 132.637Z" fill="#EC6733"/>
<path d="M638.773 131.249L637.953 131.123C638.08 130.807 638.206 130.555 638.458 130.366C638.71 130.176 639.026 130.113 639.467 130.113C639.846 130.113 640.161 130.176 640.35 130.239C640.54 130.303 640.666 130.492 640.792 130.618C640.855 130.744 640.918 131.059 640.918 131.438V132.51C640.918 132.826 640.918 133.015 640.981 133.204C641.044 133.33 641.044 133.519 641.17 133.646H640.287C640.287 133.583 640.224 133.519 640.224 133.393C640.224 133.33 640.224 133.33 640.161 133.267C640.035 133.393 639.846 133.519 639.656 133.583C639.467 133.646 639.278 133.709 639.089 133.709C638.71 133.709 638.458 133.646 638.269 133.393C638.08 133.204 637.953 132.952 637.953 132.699C637.953 132.51 638.016 132.321 638.079 132.195C638.143 132.069 638.269 131.943 638.458 131.816C638.647 131.753 638.9 131.69 639.215 131.627C639.656 131.564 639.909 131.501 640.098 131.375V131.312C640.098 131.123 640.035 130.996 639.972 130.933C639.909 130.87 639.72 130.807 639.467 130.807C639.278 130.807 639.152 130.87 639.089 130.87C638.899 130.996 638.836 131.059 638.773 131.249ZM639.972 132.006C639.846 132.069 639.656 132.069 639.404 132.132C639.152 132.195 638.963 132.258 638.9 132.258C638.773 132.321 638.71 132.447 638.71 132.573C638.71 132.699 638.773 132.826 638.836 132.889C638.963 132.952 639.026 133.015 639.215 133.015C639.404 133.015 639.53 132.952 639.656 132.826C639.783 132.763 639.846 132.636 639.846 132.51C639.846 132.447 639.909 132.258 639.909 132.069L639.972 132.006Z" fill="#EC6733"/>
<path d="M643.63 133.645V128.914H644.577V130.996L646.532 128.914H647.793L646.027 130.743L647.92 133.645H646.658L645.333 131.437L644.577 132.257V133.708L643.63 133.645Z" fill="black"/>
<path d="M648.361 129.734V128.914H649.244V129.734H648.361ZM648.361 133.645V130.239H649.244V133.645H648.361Z" fill="black"/>
<path d="M651.767 130.174V130.868H651.137V132.256C651.137 132.508 651.137 132.698 651.137 132.761C651.137 132.824 651.2 132.824 651.2 132.887C651.263 132.95 651.326 132.95 651.326 132.95C651.389 132.95 651.515 132.887 651.704 132.887L651.767 133.581C651.578 133.644 651.326 133.707 651.073 133.707C650.884 133.707 650.758 133.707 650.632 133.644C650.506 133.581 650.38 133.518 650.317 133.455C650.253 133.391 650.19 133.265 650.19 133.076C650.19 132.95 650.127 132.761 650.127 132.445V130.931H649.686V130.238H650.127V129.544L651.01 129.039V130.238L651.767 130.174Z" fill="black"/>
<path d="M653.092 131.249L652.272 131.123C652.398 130.807 652.524 130.555 652.777 130.366C653.029 130.176 653.344 130.113 653.786 130.113C654.164 130.113 654.48 130.176 654.669 130.239C654.858 130.303 654.984 130.492 655.11 130.618C655.174 130.744 655.237 131.059 655.237 131.438V132.51C655.237 132.826 655.237 133.015 655.3 133.204C655.363 133.33 655.363 133.519 655.489 133.646H654.606C654.606 133.583 654.543 133.519 654.543 133.393C654.543 133.33 654.543 133.33 654.48 133.267C654.354 133.393 654.164 133.519 653.975 133.583C653.786 133.646 653.597 133.709 653.407 133.709C653.029 133.709 652.777 133.646 652.587 133.393C652.398 133.204 652.272 132.952 652.272 132.699C652.272 132.51 652.335 132.321 652.398 132.195C652.461 132.069 652.587 131.943 652.777 131.816C652.966 131.753 653.218 131.69 653.534 131.627C653.975 131.564 654.227 131.501 654.417 131.375V131.312C654.417 131.123 654.354 130.996 654.291 130.933C654.227 130.87 654.038 130.807 653.786 130.807C653.597 130.807 653.47 130.87 653.407 130.87C653.218 130.996 653.155 131.059 653.092 131.249ZM654.291 132.006C654.164 132.069 653.975 132.069 653.723 132.132C653.47 132.195 653.281 132.258 653.218 132.258C653.092 132.321 653.029 132.447 653.029 132.573C653.029 132.699 653.092 132.826 653.155 132.889C653.281 132.952 653.344 133.015 653.534 133.015C653.723 133.015 653.849 132.952 653.975 132.826C654.101 132.763 654.164 132.636 654.164 132.51C654.164 132.447 654.227 132.258 654.227 132.069L654.291 132.006Z" fill="black"/>
<path d="M564.72 106.961C557.466 106.961 551.6 112.827 551.6 120.081C551.6 127.335 557.466 133.201 564.72 133.201C571.974 133.201 577.84 127.335 577.84 120.081C577.84 112.827 571.974 106.961 564.72 106.961ZM566.865 121.09H565.919C565.919 121.09 565.54 120.964 565.477 121.532C565.477 122.1 565.477 125.569 565.477 125.569H564.152L563.837 124.37C563.837 124.37 563.08 125.695 561.44 125.632C559.8 125.569 558.286 125.064 557.845 124.686C557.403 124.307 556.078 123.298 555.637 121.469C555.448 120.586 555.511 119.64 555.7 118.756C556.015 117.306 557.025 116.296 557.025 116.296C557.34 115.918 557.718 115.603 558.097 115.413C558.791 115.035 559.232 114.846 559.926 114.719C560.62 114.593 562.134 114.53 563.017 115.098C563.017 115.098 563.269 115.287 563.395 115.413L563.9 114.719H565.099L565.288 118.883H564.152C564.152 118.883 563.648 115.287 560.998 115.35C559.737 115.413 559.169 116.296 559.169 116.296C559.169 116.296 558.16 117.369 558.16 119.703C558.16 122.037 559.169 123.929 559.169 123.929C559.169 123.929 559.8 124.812 561.251 124.812C562.702 124.812 563.017 123.929 563.017 123.929C563.017 123.929 563.269 123.74 563.269 121.153C563.269 121.153 563.269 121.027 563.017 121.027H561.629V120.396H566.928L566.865 121.09ZM572.731 125.632H568.189V125.001H569.135C569.577 125.001 569.514 124.37 569.514 124.37L567.243 120.46V118.82L569.072 116.486C569.072 116.486 569.072 116.486 569.262 116.044C569.451 115.603 568.883 115.35 568.883 115.35H568.126V114.719H572.416V115.287C572.416 115.287 572.1 115.287 571.848 115.287C571.595 115.287 571.217 115.666 571.217 115.666L568.379 119.072C568.379 119.072 571.659 124.56 571.848 124.812C572.037 125.064 572.731 125.001 572.731 125.001V125.632Z" fill="#CCAC5D"/>
<path d="M210.98 75.4893H172.565V24.207H210.98V33.6056H182.153V45.4012H209.971V54.4213H182.216V65.9645H211.043L210.98 75.4893Z" fill="black"/>
<path d="M253.683 24.1406H263.334V75.4859H257.342V75.549L230.408 40.9193V75.4859H220.757V24.2037H228.578L253.683 55.9949V24.1406Z" fill="black"/>
<path d="M272.228 75.4893V24.207H281.816V75.4893H272.228Z" fill="black"/>
<path d="M328.998 36.7578C325.403 33.5408 320.798 31.7115 316.004 31.7115C305.029 31.7115 298.343 40.0378 298.343 50.5718C298.343 59.0242 303.263 67.7289 316.004 67.7289C320.231 67.8551 324.331 66.4043 327.548 63.6289V54.4826H314.49V45.8409H336.442V67.4136C331.395 73.469 323.889 76.8752 316.004 76.6229C296.766 76.6229 288.881 63.9443 288.881 50.4456C288.881 36.0008 297.901 22.6914 316.004 22.6914C323.132 22.6914 330.008 25.5299 335.054 30.5131L328.998 36.7578Z" fill="black"/>
<path d="M389.048 38.3984L372.333 60.6648H370.44L354.103 38.3353V75.6143H344.389V24.332H355.554L371.576 46.4093L387.598 24.332H398.636V75.6143H388.985L389.048 38.3984Z" fill="black"/>
<path d="M444.178 65.8384H417.37L412.955 75.4893H402.421L425.444 24.207H435.978L459.002 75.4893H448.468L444.178 65.8384ZM430.806 34.9933L421.281 56.8182H440.268L430.806 34.9933Z" fill="black"/>
<path d="M500.065 68.4214C495.082 73.3414 488.396 76.1168 481.394 76.1168C464.111 76.1168 455.091 64.0059 455.028 50.1919C454.965 36.3779 463.795 23.6992 481.394 23.6992C488.396 23.6992 495.082 26.4746 500.065 31.3947L497.353 33.7286C493.127 29.5024 487.387 27.1685 481.394 27.2316C466.382 27.2316 458.749 37.7656 458.812 50.0657C458.939 62.0505 466.571 72.4583 481.394 72.4583C487.387 72.4583 493.127 70.1245 497.416 65.9613L500.065 68.4214Z" fill="#233D90"/>
<path d="M547.878 75.4854L542.201 62.8698H511.608L506.058 75.4854H501.831L524.792 24.2031H529.081L552.104 75.4854H547.878ZM540.687 59.2744L526.936 28.0509L513.122 59.2744H540.687Z" fill="#233D90"/>
<path d="M602.63 29.9432L583.013 59.9682H581.688L561.881 29.9432V75.4854H557.908V24.2031H562.575L582.193 54.102L601.62 24.2031H606.477V75.4854H602.567L602.63 29.9432Z" fill="#233D90"/>
<path d="M621.742 57.7605V75.4854H617.768V24.2031H640.224C662.49 24.2031 662.49 57.7605 640.224 57.7605H621.742ZM621.742 27.9247V54.2281H640.287C657.381 54.2281 657.381 27.9247 640.287 27.9247H621.742Z" fill="#233D90"/>
<path d="M109.488 114.533L114.282 109.74C119.139 105.072 125.636 102.486 132.385 102.675C145.631 102.99 156.544 92.4562 156.859 79.273C157.174 66.0266 146.641 55.0511 133.457 54.7988C133.079 54.7988 132.763 54.7988 132.385 54.7988C125.636 54.988 119.139 52.4018 114.345 47.7341L109.551 42.9402C104.883 38.0832 102.297 31.5862 102.423 24.8368C102.549 11.5905 91.889 0.678045 78.6427 0.55189C65.3963 0.425734 54.4839 11.0859 54.3577 24.3322C54.2316 37.5785 64.8917 48.491 78.138 48.6172C78.3273 48.6172 78.5165 48.6172 78.7057 48.6172C85.4551 48.4279 91.9521 50.951 96.746 55.6819L101.414 60.4758C106.208 65.3959 108.794 72.019 108.668 78.8945V79.0837C108.794 85.9592 106.208 92.5824 101.414 97.4394L96.8721 101.855C91.9521 106.649 85.3289 109.235 78.5165 109.109H78.3273C71.4518 109.235 64.8286 106.649 59.9086 101.855L55.1777 97.124C50.51 92.267 47.9238 85.77 48.113 79.0837C48.2392 65.8374 37.6421 54.9249 24.3327 54.7988C11.0864 54.6726 0.173901 65.2697 0.0477456 78.5791C-0.0784099 91.8885 10.5187 102.738 23.8281 102.864C24.0173 102.864 24.2065 102.864 24.3958 102.864C31.1451 102.675 37.6421 105.198 42.436 109.929L47.3561 114.849C52.0238 119.706 54.61 126.203 54.4208 132.952C54.1054 146.198 64.6394 157.111 77.8857 157.426C91.1321 157.742 102.108 147.208 102.36 134.024C102.36 133.646 102.36 133.331 102.36 132.952C102.234 125.951 104.757 119.39 109.488 114.533Z" fill="#233D90"/>
</svg>
